<svg width="200" height="200" viewBox="0 0 200 200" fill="none" xmlns="http://www.w3.org/2000/svg">
  <rect width="200" height="200" fill="#EEF2FF"/>
  <path d="M92 70H108C110.761 70 113 72.2386 113 75V125C113 127.761 110.761 130 108 130H92C89.2386 130 87 127.761 87 125V75C87 72.2386 89.2386 70 92 70Z" fill="#818CF8"/>
  <path d="M70 92V108C70 110.761 72.2386 113 75 113H125C127.761 113 130 110.761 130 108V92C130 89.2386 127.761 87 125 87H75C72.2386 87 70 89.2386 70 92Z" fill="#818CF8"/>
  <rect x="45" y="45" width="110" height="110" rx="55" stroke="#4F46E5" stroke-width="4"/>
</svg> 